<svg xmlns="http://www.w3.org/2000/svg" width="25" height="25" fill="none"><path fill="#34AADD" fill-rule="evenodd" d="M12.058 13.229c-4.075 0-7.446 3.059-7.938 7.002-.069.548.385.998.938.998.552 0 .99-.451 1.082-.996a6.01 6.01 0 0 1 5.918-5.004 6.01 6.01 0 0 1 5.917 5.004c.091.545.53.996 1.083.996.552 0 1.006-.45.938-.998-.493-3.943-3.863-7.002-7.938-7.002Z" clip-rule="evenodd"/><path stroke="#34AADD" stroke-width="2" d="M12.058 11.229c2.206 0 4-1.794 4-4s-1.794-4-4-4-4 1.794-4 4 1.794 4 4 4"/></svg>
