<svg xmlns="http://www.w3.org/2000/svg" width="31" height="31" fill="none"><path fill="#121920" fill-rule="evenodd" d="M14.802.087A15.076 15.076 0 0 1 29.7 19.144a2.52 2.52 0 1 1-4.86-1.331A10.04 10.04 0 0 0 14.92 5.125a10.036 10.036 0 0 0-9.306 13.144 10.038 10.038 0 0 0 9.396 6.929 2.52 2.52 0 0 1-.074 5.039A15.076 15.076 0 0 1 .782 10.62a15.078 15.078 0 0 1 5.321-7.515L7.617 5.12 6.103 3.106a15.076 15.076 0 0 1 8.699-3.02Z" clip-rule="evenodd"/><path fill="#F95A59" d="M26.5 24.97a3.82 3.82 0 1 1-7.641 0 3.82 3.82 0 0 1 7.64 0Z"/></svg>
